<?xml version="1.0" encoding="utf-8"?>
<!-- Generator: Adobe Illustrator 16.0.0, SVG Export Plug-In . SVG Version: 6.00 Build 0)  -->
<!DOCTYPE svg PUBLIC "-//W3C//DTD SVG 1.1//EN" "http://www.w3.org/Graphics/SVG/1.1/DTD/svg11.dtd">
<svg version="1.1" id="Capa_1" xmlns="http://www.w3.org/2000/svg" xmlns:xlink="http://www.w3.org/1999/xlink" x="0px" y="0px"
	 width="639.064px" height="1176.409px" viewBox="589.394 0 639.064 1176.409" enable-background="new 589.394 0 639.064 1176.409"
	 xml:space="preserve">
<g>
	<g id="svg_contend">
		<path display="none" fill-rule="evenodd" clip-rule="evenodd" fill="#F4D4AF" d="M929.776,784.268
			c31.045,2.555,48.129,15.896,48.209,45.716c0.014,5.129,4.078,6.354,7.271,8.004c20.236,10.457,30.026,26.033,29.864,49.675
			c-0.196,28.77,3.098,57.547,3.632,86.344c0.173,9.25,0.099,16.612,6.249,25.021c10.022,13.706,1.53,31.332-15.486,34.682
			c-6.609,1.302-8.225,3.732-8.077,9.98c0.293,12.406,4.211,24.514,2.713,37.043c-0.454,3.782,0.39,7.817-4.913,9.121
			c-2.803,0.688-8.816-1.916-6.101,5.796c1.765,5.013,1.868,9.735,9.362,9.01c9.747-0.947,19.46,0.692,29.133,2.243
			c10.158,1.632,17.289,7.084,22.032,15.98c10.094,18.938,6.196,25.695-14.812,25.697c-26.243,0.003-52.493-0.274-78.731,0.165
			c-7.966,0.134-10.731-2.631-10.554-10.334c0.323-13.731-0.847-27.555,4.441-40.755c0.859-2.146,2.88-5.734-0.456-6.672
			c-20.141-5.655-10.85-21.665-8.716-31.544c2.712-12.551,0.853-24.649,2.194-36.842c0.656-5.987-35.379-5.525-39.363-5.525
			c-27.535,0.019,11.605,0.207-15.925-0.217c-7.521-0.114-43.314,3.258-43.036,9.253c0.789,17.132,1.354,34.273,1.91,51.416
			c0.203,6.168,0.581,12.286-8.54,12.681c-6.957,0.301-3.858,5.232-2.683,8.4c4.768,12.85,4.052,26.195,4.198,39.509
			c0.078,7.273-2.078,10.75-10.384,10.625c-29.682-0.459-59.374-0.399-89.056-0.019c-7.63,0.101-9.522-2.724-9.306-9.797
			c0.636-20.672,15.529-33.169,41.607-34.226c4.688-0.189,9.39-0.26,14.076-0.129c4.665,0.131,7.898-0.378,8.753-6.373
			c0.707-4.95,1.419-8.111-4.985-8.646c-5.537-0.461-4.147-5.254-4.968-8.896c-2.961-13.12,5.016-24.66,5.005-37.356
			c-0.004-5.346-0.854-8.264-6.881-9.993c-16.234-4.663-22.554-21.87-13.069-36.247c3.905-5.92,4.864-10.826,4.785-18.02
			c-0.397-36.988,1.198-73.985,5.39-110.767c1.705-14.956,14.262-22.009,25.652-28.753c6.859-4.062,10.271-8.043,11.214-16.551
			c2.501-22.545,14.036-32.543,40.396-37.946c1.549-0.318,3.052-0.855,4.575-1.289c-0.836-3.9-3.835-3.52-6.163-4.262
			c-79.186-25.255-134.818-75.152-161.74-154.916c-1.853-5.495-3.883-7.897-10.441-8.028c-16.943-0.346-25.317-6.731-29.577-23.309
			c-4.23-16.469-11.388-31.316-19.812-45.892c-14.651-25.348-9.913-50.55,13.286-68.143c6.626-5.025,7.161-9.354,5.6-16.854
			c-10.376-49.893-15.728-100.396-11.34-151.264c6.292-72.886,48.347-115.951,120.662-125.095
			c7.172-0.908,10.062-2.853,11.938-9.817c5.438-20.178,19.498-33.977,36.298-45.238c64.044-42.941,137.128-41.926,204.378,2.761
			c34.403,22.862,63.281,51.616,88.106,84.38c6.07,8.009,11.838,16.978,16.835,22.314c22.683,24.205,25.95,52.827,22.847,84.827
			c-4.353,44.905-6.203,90.075-11.867,134.889c-0.958,7.585,1.163,11.043,7.855,14.84c27.71,15.732,35.379,45.05,19.23,72.482
			c-8.749,14.861-16.927,29.812-21.563,46.565c-4.029,14.555-11.867,25.033-29.104,23.078c-4.521-0.513-5.846,1.773-7.073,5.478
			c-27.676,83.379-85.632,134.578-168.968,158.757C934.628,781.623,933.583,782.359,929.776,784.268z"/>
		<path fill-rule="evenodd" clip-rule="evenodd" fill="#F7EBD6" d="M860.21,821.167c2.501-22.545-4.667-16.333-2-27.666
			c1.549-0.318,6.663-9.334,8.187-9.768c-0.836-3.9-3.835-3.52-6.163-4.262c-79.186-25.255-134.818-75.152-161.74-154.916
			c-1.853-5.495-3.883-7.897-10.441-8.028c-16.943-0.346-25.317-6.731-29.577-23.309c-4.23-16.469-11.388-31.316-19.812-45.892
			c-14.651-25.348-9.913-50.55,13.286-68.143c6.626-5.025,7.161-9.354,5.6-16.854c-10.376-49.893-15.728-100.396-11.34-151.264
			c6.292-72.886,48.347-115.951,120.662-125.095c7.172-0.908,10.062-2.853,11.938-9.817c5.438-20.178,19.498-33.977,36.298-45.238
			c64.044-42.941,137.128-41.926,204.378,2.761c34.403,22.862,63.281,51.616,88.106,84.38c6.07,8.009,11.838,16.978,16.835,22.314
			c22.683,24.205,25.95,52.827,22.847,84.827c-4.353,44.905-6.203,90.075-11.867,134.889c-0.958,7.585,1.163,11.043,7.855,14.84
			c27.71,15.732,35.379,45.05,19.23,72.482c-8.749,14.861-16.927,29.812-21.563,46.565c-4.029,14.555-11.867,25.033-29.104,23.078
			c-4.521-0.513-5.846,1.773-7.073,5.478c-27.676,83.379-85.632,134.578-168.968,158.757c-1.154,0.335-2.199,1.071-6.007,2.979
			c13.768,14.899,12.354,7.746,12.435,37.566"/>
		<path fill-rule="evenodd" clip-rule="evenodd" fill="#45435B" d="M932.043,785c31.045,2.555,47.129,12.896,47.209,42.716
			c0.014,5.129,4.078,6.354,7.271,8.004c20.236,10.457,30.026,26.033,29.864,49.675c-0.196,28.77,3.098,57.547,3.632,86.344
			c0.173,9.25,0.099,16.612,6.249,25.021c10.022,13.706,1.53,31.332-15.486,34.682c-6.609,1.302-8.225,3.732-8.077,9.98
			c0.293,12.406,4.211,24.514,2.713,37.043c-0.454,3.782,0.39,7.817-4.913,9.121c-2.803,0.688-8.816-1.916-6.101,5.796
			c1.765,5.013,1.868,9.735,9.362,9.01c9.747-0.947,19.46,0.692,29.133,2.243c10.158,1.632,17.289,7.084,22.032,15.98
			c10.094,18.938,6.196,25.695-14.812,25.697c-26.243,0.003-52.493-0.274-78.731,0.165c-7.966,0.134-10.731-2.631-10.554-10.334
			c0.323-13.731-0.847-27.555,4.441-40.755c0.859-2.146,2.88-5.734-0.456-6.672c-20.141-5.655-10.85-21.665-8.716-31.544
			c2.712-12.551,0.853-24.649,2.194-36.842c0.656-5.987-35.379-5.525-39.363-5.525c-27.535,0.019,11.605,0.207-15.925-0.217
			c-7.521-0.114-43.314,3.258-43.036,9.253c0.789,17.132,1.354,34.273,1.91,51.416c0.203,6.168,0.581,12.286-8.54,12.681
			c-6.957,0.301-3.858,5.232-2.683,8.4c4.768,12.85,4.052,26.195,4.198,39.509c0.078,7.273-2.078,10.75-10.384,10.625
			c-29.682-0.459-59.374-0.399-89.056-0.019c-7.63,0.101-9.522-2.724-9.306-9.797c0.636-20.672,15.529-33.169,41.607-34.226
			c4.688-0.189,9.39-0.26,14.076-0.129c4.665,0.131,7.898-0.378,8.753-6.373c0.707-4.95,1.419-8.111-4.985-8.646
			c-5.537-0.461-4.147-5.254-4.968-8.896c-2.961-13.12,5.016-24.66,5.005-37.356c-0.004-5.346-0.854-8.264-6.881-9.993
			c-16.234-4.663-22.554-21.87-13.069-36.247c3.905-5.92,4.864-10.826,4.785-18.02c-0.397-36.988,1.198-73.985,5.39-110.767
			c1.705-14.956,14.262-22.009,25.652-28.753c6.859-4.062,10.271-8.043,11.214-16.551c2.501-22.545,16.49-30.798,42.851-36.201
			c1.353-0.278,13.631,19.674,33.001,19.997C913.544,804.747,932.043,785,932.043,785z"/>
		<g id="shoes_i">
			<g id="svg_1212">
				<path id="shoes_b_i" fill="#69C4A0" d="M712.265,1139.73c0.03-4.394,0.061-8.781,0.083-13.169
					c26.795-11.845,53.505-24.107,80.298-35.948c25.862,12.746,32.159,8.916,52.286,8.359v40.55L712.265,1139.73L712.265,1139.73
					L712.265,1139.73L712.265,1139.73L712.265,1139.73L712.265,1139.73L712.265,1139.73L712.265,1139.73L712.265,1139.73
					L712.265,1139.73L712.265,1139.73L712.265,1139.73L712.265,1139.73L712.265,1139.73z"/>
				<ellipse id="h1_i" fill="#3F8262" cx="777.167" cy="1103.675" rx="3.031" ry="3.76"/>
				<ellipse id="h3_i" fill="#3F8262" cx="756.762" cy="1113.69" rx="3.033" ry="3.761"/>
				<path id="h5_i" fill="#3F8262" d="M735.192,1119.662c1.675,0,3.036,1.688,3.036,3.766c0,2.077-1.361,3.762-3.036,3.762
					c-1.674,0-3.033-1.685-3.033-3.762C732.159,1121.35,733.518,1119.662,735.192,1119.662z"/>
				<path id="end_i" fill="#F7F7F7" d="M678.064,1139.354h34.254v-12.706C687.778,1126.871,680.686,1132.192,678.064,1139.354z"/>
				<rect id="sole_i" x="678.046" y="1139.311" fill="#D2D2D2" width="166.886" height="16.72"/>
				<rect id="sole_c_i" x="745.473" y="1145.167" fill="#69C4A0" width="99.459" height="5.013"/>
				<path id="svg_13" fill="#EA1717" d="M732.962,1116.637l3.67,6.02c0.64,1.043-1.952,3.465-2.573,2.453l-3.731-6.085
					C729.693,1117.986,732.297,1115.554,732.962,1116.637L732.962,1116.637L732.962,1116.637L732.962,1116.637L732.962,1116.637
					L732.962,1116.637L732.962,1116.637L732.962,1116.637L732.962,1116.637L732.962,1116.637L732.962,1116.637z"/>
				<path id="h4_i" fill="#3F8262" d="M746.227,1114.424c1.675,0,3.033,1.681,3.033,3.764c0,2.074-1.358,3.758-3.033,3.758
					c-1.677,0-3.033-1.684-3.033-3.758C743.194,1116.104,744.55,1114.424,746.227,1114.424z"/>
				<path id="h2_i" fill="#3F8262" d="M767.053,1104.615c1.675,0,3.031,1.682,3.031,3.765c0,2.076-1.356,3.763-3.031,3.763
					c-1.68,0-3.036-1.687-3.036-3.763C764.017,1106.297,765.375,1104.615,767.053,1104.615z"/>
				<path id="c5_i" fill="#FFFFFF" d="M732.965,1116.623l3.671,6.018c0.641,1.051-1.952,3.47-2.571,2.457l-3.731-6.086
					C729.695,1117.976,732.302,1115.545,732.965,1116.623L732.965,1116.623L732.965,1116.623L732.965,1116.623L732.965,1116.623
					L732.965,1116.623L732.965,1116.623L732.965,1116.623L732.965,1116.623L732.965,1116.623z"/>
				<path id="c4_i" fill="#FFFFFF" d="M743.946,1111.263l3.668,6.022c0.644,1.046-1.949,3.462-2.571,2.447l-3.73-6.082
					C740.674,1112.615,743.283,1110.183,743.946,1111.263L743.946,1111.263L743.946,1111.263L743.946,1111.263L743.946,1111.263
					L743.946,1111.263L743.946,1111.263L743.946,1111.263L743.946,1111.263L743.946,1111.263L743.946,1111.263z"/>
				<path id="c3_i" fill="#FFFFFF" d="M754.228,1106.454l3.669,6.02c0.644,1.049-1.949,3.468-2.569,2.45l-3.732-6.077
					C750.958,1107.806,753.564,1105.377,754.228,1106.454L754.228,1106.454L754.228,1106.454L754.228,1106.454z"/>
				<path id="c2_i" fill="#FFFFFF" d="M765.014,1101.647l3.674,6.02c0.641,1.049-1.952,3.468-2.572,2.453l-3.732-6.082
					C761.743,1103,764.351,1100.568,765.014,1101.647L765.014,1101.647L765.014,1101.647L765.014,1101.647L765.014,1101.647z"/>
				<path id="c1_i" fill="#FFFFFF" d="M775.48,1103.895c0.011-0.805,3.557-0.873,3.538-0.126v67.102h-3.538V1103.895
					L775.48,1103.895L775.48,1103.895L775.48,1103.895L775.48,1103.895z"/>
			</g>
			<path id="top_i" fill="#59AA87" d="M844.932,1099.779v-5.097c-0.58-1.278-4.48-0.974-5.646,0.22
				c-1.705,1.581-4.976,3.089-9.105,4.812C835.042,1099.601,840.071,1099.891,844.932,1099.779L844.932,1099.779L844.932,1099.779z"
				/>
			<path id="svg_35" fill="#F2F0F0" d="M792.759,1090.822l9.021-10.033c8.455,5.504,10.087,8.081,8.344,16.826L792.759,1090.822
				L792.759,1090.822z"/>
			<rect id="pc_i" x="776.071" y="1170.87" fill="#BFBFBF" width="2.36" height="7.524"/>
			<path id="svg_37" opacity="0.5" fill="#29394B" enable-background="new    " d="M844.764,1098.765"/>
			<ellipse id="circle_i" fill="#FFFFFF" cx="822.343" cy="1120.082" rx="10.398" ry="10.398"/>
			<path id="start_i" fill="#69C4A0" d="M820.326,1117.188l2.001-6.208l2.05,6.259l6.15,0.108l-4.749,3.843l1.646,6.161
				l-5.098-3.528l-5.053,3.634l1.65-6.16l-4.749-3.899L820.326,1117.188L820.326,1117.188L820.326,1117.188L820.326,1117.188
				L820.326,1117.188L820.326,1117.188L820.326,1117.188L820.326,1117.188L820.326,1117.188z"/>
		</g>
		<g id="shoes_d">
			<path id="top_d" fill="#AA6363" d="M947.184,1098.045v-5.541c0.58-1.389,4.173-0.951,5.341,0.352
				c1.697,1.714,5.271,3.254,9.393,5.118C957.063,1097.854,952.037,1098.159,947.184,1098.045L947.184,1098.045L947.184,1098.045z"
				/>
			<path id="svg_50" fill="#F2F0F0" d="M999.206,1088.771l-9.01-10.161c-8.453,5.572-10.077,8.18-8.337,17.043L999.206,1088.771
				L999.206,1088.771L999.206,1088.771L999.206,1088.771L999.206,1088.771L999.206,1088.771L999.206,1088.771z"/>
			<g id="svg_51">
				<path id="shoes_b_d" fill="#E39180" d="M1079.62,1138.308c-0.026-4.442-0.054-8.892-0.084-13.335
					c-26.768-11.998-53.449-24.417-80.22-36.412c-23.816,10.868-32.125,9.03-52.235,8.467v41.071L1079.62,1138.308L1079.62,1138.308
					L1079.62,1138.308L1079.62,1138.308L1079.62,1138.308L1079.62,1138.308L1079.62,1138.308L1079.62,1138.308z"/>
				<path id="h1_d" fill="#AA6363" d="M1014.782,1097.984c1.674,0,3.031,1.698,3.031,3.805c0,2.105-1.357,3.81-3.031,3.81
					c-1.675,0-3.03-1.704-3.03-3.81C1011.751,1099.683,1013.107,1097.984,1014.782,1097.984z"/>
				<path id="h3_d" fill="#AA6363" d="M1035.167,1108.128c1.675,0,3.032,1.702,3.032,3.809c0,2.103-1.357,3.807-3.032,3.807
					c-1.672,0-3.027-1.704-3.027-3.807C1032.139,1109.83,1033.495,1108.128,1035.167,1108.128z"/>
				<path id="h5_d" fill="#AA6363" d="M1056.717,1117.983c1.674,0,3.031,1.709,3.031,3.812c0,2.1-1.357,3.81-3.031,3.81
					c-1.675,0-3.033-1.71-3.033-3.81C1053.684,1119.69,1055.042,1117.983,1056.717,1117.983z"/>
				<path id="end_d" fill="#F7F7F7" d="M1113.79,1137.928h-34.222v-12.871C1104.082,1125.285,1111.169,1130.675,1113.79,1137.928z"
					/>
				<rect id="sole_d" x="947.081" y="1137.884" fill="#D2D2D2" width="166.728" height="16.936"/>
				<rect id="sole_c_d" x="947.081" y="1143.812" fill="#E39180" width="99.363" height="5.083"/>
				<path id="svg_59" fill="#EA1717" d="M1058.946,1114.915l-3.672,6.099c-0.641,1.06,1.952,3.511,2.573,2.484l3.729-6.16
					C1062.211,1116.286,1059.607,1113.821,1058.946,1114.915L1058.946,1114.915L1058.946,1114.915L1058.946,1114.915
					L1058.946,1114.915L1058.946,1114.915L1058.946,1114.915L1058.946,1114.915L1058.946,1114.915L1058.946,1114.915z"/>
				<path id="h4_d" fill="#AA6363" d="M1045.691,1112.678c1.676,0,3.033,1.705,3.033,3.807c0,2.106-1.357,3.811-3.033,3.811
					c-1.67,0-3.032-1.704-3.032-3.811C1042.659,1114.383,1044.021,1112.678,1045.691,1112.678z"/>
				<path id="h2_d" fill="#AA6363" d="M1024.889,1102.739c1.669,0,3.03,1.708,3.03,3.812c0,2.102-1.361,3.808-3.03,3.808
					c-1.678,0-3.031-1.706-3.031-3.808C1021.858,1104.447,1023.211,1102.739,1024.889,1102.739z"/>
				<path id="c5_d" fill="#FFFFFF" d="M1058.942,1114.907l-3.668,6.094c-0.643,1.064,1.947,3.513,2.568,2.489l3.729-6.163
					C1062.207,1116.273,1059.602,1113.812,1058.942,1114.907L1058.942,1114.907L1058.942,1114.907L1058.942,1114.907
					L1058.942,1114.907L1058.942,1114.907L1058.942,1114.907L1058.942,1114.907L1058.942,1114.907L1058.942,1114.907z"/>
				<path id="c4_d" fill="#FFFFFF" d="M1047.972,1109.475l-3.665,6.095c-0.645,1.06,1.948,3.511,2.57,2.484l3.724-6.158
					C1051.24,1110.845,1048.637,1108.377,1047.972,1109.475L1047.972,1109.475L1047.972,1109.475L1047.972,1109.475z"/>
				<path id="c3_d" fill="#FFFFFF" d="M1037.7,1104.607l-3.665,6.091c-0.642,1.064,1.946,3.517,2.565,2.49l3.729-6.159
					C1040.969,1105.975,1038.365,1103.511,1037.7,1104.607L1037.7,1104.607L1037.7,1104.607z"/>
				<path id="c2_d" fill="#FFFFFF" d="M1026.923,1099.736l-3.669,6.097c-0.644,1.061,1.949,3.511,2.57,2.484l3.727-6.161
					C1030.189,1101.105,1027.584,1098.64,1026.923,1099.736z"/>
				<path id="c1_d" fill="#FFFFFF" d="M1016.466,1102.012c-0.011-0.813-3.556-0.885-3.538-0.127v67.964h3.538V1102.012
					L1016.466,1102.012L1016.466,1102.012L1016.466,1102.012L1016.466,1102.012z"/>
			</g>
			<rect id="pc_d" x="1013.519" y="1169.849" fill="#BFBFBF" width="2.357" height="7.626"/>
			<path id="svg_68" opacity="0.5" fill="#29394B" enable-background="new    " d="M947.25,1096.815"/>
			<path id="circle_d" fill="#FFFFFF" d="M969.649,1107.879c5.736,0,10.389,4.71,10.389,10.53c0,5.814-4.652,10.53-10.389,10.53
				c-5.738,0-10.395-4.716-10.395-10.53C959.254,1112.589,963.911,1107.879,969.649,1107.879z"/>
			<path id="start_d" fill="#E39180" d="M971.667,1115.477l-2.002-6.294l-2.048,6.349l-6.146,0.106l4.749,3.894l-1.647,6.236
				l5.092-3.57l5.048,3.681l-1.651-6.238l4.749-3.948L971.667,1115.477L971.667,1115.477L971.667,1115.477L971.667,1115.477
				L971.667,1115.477L971.667,1115.477L971.667,1115.477L971.667,1115.477L971.667,1115.477L971.667,1115.477z"/>
		</g>
		<path id="head" fill="#64696B" d="M698.602,640.653l-32.044,82.481l-8.437-43.463l-18.551,11.536l7.587-125.057l-21.08,23.062
			l6.745-109.974l-21.926,32.817l8.433-61.198l-16.869,10.645l32.049-85.14l-22.773,10.642l16.868-67.402l-16.868,8.869
			l70.847-131.26l-46.389-11.531l122.29-86.915l-52.289-13.304l150.962-27.494l-34.579-33.702L973.54,84.573l-48.072-50.554
			l74.218,28.384L958.363,9.188l86.022,79.818l-15.185-78.93l42.173,102.879l67.469-52.327l-49.76,82.479l118.914,47.004
			l-87.707,1.775l92.771,60.309l-26.991,5.32l31.208,124.165l-32.052-31.928l21.087,159.639l-16.864,7.1l21.926,81.594
			l-37.107,3.545l-21.925,101.996l-15.184-23.953l-12.648,29.274l-10.97-36.368l-16.019,35.478l-9.283-45.227l-32.048,38.137
			l-0.845-56.767l-14.335,35.479l28.674-212.853l-30.358,77.161l-41.329-227.934l-0.839,141.017L972.7,344.437l-4.216,62.081
			l-16.024-38.138l-25.304,220.837l-4.215-156.98l-16.023,50.555l2.529-114.411l-67.47,141.017l-20.239-139.241l0.842,226.155
			l-71.686-64.741l34.577,83.369l-39.636-15.083l-5.905,115.299l-25.302-53.215l-10.125,29.269L698.602,640.653L698.602,640.653z"/>
		<g>
			<path fill="#515166" d="M902.089,522.557c-20.718,0.682-21.534,38.864-35.952,59.988c-19.855,29.09-50.234,33.493-69.666,34.936
				c-18.65,1.382-48.336,0.405-71.696-21.326c-13.465-12.529-19.295-22.546-29.855-67.229
				c-4.031-17.062-14.218-23.561-14.218-23.561s-2.442-19.296,2.572-33.715c18.953,0,79.361,1.021,108.326,2.843
				c58.092,3.655,93.296,17.061,110.49,17.197 M703.933,513.567c-2.909,29.42,14.597,65.782,29.265,78.277
				c10.969,9.343,55.787,29.564,95.467,10.606c36.56-17.471,50.999-71.376,45.721-89.249c-2.37-8.031-23.764-25.447-76.447-29.627
				C772.348,481.542,707.592,476.597,703.933,513.567z"/>
			<g>
				<path fill="#515166" d="M900.306,491.689c17.198-0.137,52.403-13.542,110.491-17.197c28.967-1.821,89.373-2.843,108.325-2.843
					c5.013,14.419,2.573,33.715,2.573,33.715s-10.185,6.498-14.215,23.561c-10.564,44.684-16.393,54.7-29.859,67.229
					c-23.358,21.731-53.043,22.708-71.693,21.326c-19.435-1.442-49.811-5.846-69.666-34.936
					c-14.421-21.124-15.235-59.307-35.953-59.988 M1004.458,483.575c-52.681,4.18-74.074,21.596-76.447,29.627
					c-5.275,17.873,9.164,71.778,45.724,89.249c39.677,18.958,84.498-1.264,95.467-10.606c14.67-12.495,32.174-48.857,29.265-78.277
					C1094.807,476.597,1030.048,481.542,1004.458,483.575z"/>
			</g>
		</g>
		<path fill-rule="evenodd" clip-rule="evenodd" fill="#F4D9D4" d="M901.877,708.167c-8.479,0.002-17.667-0.667-25.709-2.292
			c-1.801-0.006-4.589,0.258-4.512-0.886c0.066-1.008,2.643-0.97,4.608-0.971c8.315-0.004,16.963-0.519,25.278-0.519
			c9.208,0.001,18.085,0.517,27.293,0.527c1.923,0.003,4.391,0.024,4.021,1.147c-0.294,0.89-2.589,0.507-4.117,0.697
			C919.21,707.056,910.922,708.164,901.877,708.167z"/>
	</g>
	<g>
		<polygon fill="#45435B" points="866.517,934.63 859.084,851.264 940.757,851.264 933.317,934.617 899.872,943.89 		"/>
		<polygon fill="#4D4D66" points="899.92,936.803 926.946,929.309 933.304,858.081 899.92,858.081 		"/>
		<polygon fill="#EBEBEB" points="899.92,889 886.391,889 885.457,878.529 899.92,878.529 899.92,868.305 899.885,868.305 
			874.282,868.305 874.528,871.048 877.041,899.224 899.92,899.224 		"/>
		<polygon fill="#EBEBEB" points="899.92,915.554 899.875,915.566 888.489,912.491 887.76,904.337 882.227,904.337 877.497,904.337 
			878.929,920.391 899.874,926.206 899.92,926.191 		"/>
		<polygon fill="#FFFFFF" points="899.885,889 899.885,899.224 912.476,899.224 911.289,912.484 899.885,915.562 899.885,926.2 
			920.847,920.391 921,918.664 923.403,891.745 923.653,889 920.897,889 		"/>
		<polygon fill="#FFFFFF" points="899.885,868.305 899.885,874.655 899.885,878.505 899.885,878.529 924.55,878.529 924.55,878.529 
			924.583,878.529 924.788,876.232 925.254,871.048 925.499,868.305 		"/>
	</g>
</g>
</svg>
